<?xml version="1.0" encoding="UTF-8" standalone="no"?>
<!-- Created with Inkscape (http://www.inkscape.org/) -->

<svg
   width="48"
   height="48"
   viewBox="0 0 48 48"
   version="1.1"
   id="svg1"
   xml:space="preserve"
   xmlns="http://www.w3.org/2000/svg"
   xmlns:svg="http://www.w3.org/2000/svg"><defs
     id="defs1" /><g
     id="layer1"><g
       id="g3"
       transform="translate(-66.37642,13.96816)"><path
         style="fill:#fdfdfd"
         d="m 93.726551,22.686107 c 1.73627,-0.450548 5.722486,-1.479013 8.858259,-2.285477 l 5.7014,-1.466299 2.7e-4,-10.8996359 2.6e-4,-10.8996361 -0.7409,-0.1611404 c -0.40749,-0.088627 -1.23375,-0.2964014 -1.83613,-0.4617203 -0.60238,-0.1653189 -2.95069,-0.7747859 -5.21847,-1.3543711 -2.267782,-0.5795852 -5.45685,-1.4022949 -7.086817,-1.8282438 l -2.963578,-0.7744524 -1.095236,0.2698861 c -1.289574,0.3177746 -8.164964,2.0924617 -12.562993,3.2427803 -1.700836,0.4448592 -3.367848,0.8692046 -3.704472,0.9429897 L 72.466101,-2.855058 V 8.0443382 18.943734 l 4.0266,1.015759 c 2.21463,0.558666 4.142566,1.035554 4.284303,1.059749 0.78537,0.134068 -1.201252,-0.429077 -4.187665,-1.187072 -1.878006,-0.476665 -3.45783,-0.905355 -3.51072,-0.952644 -0.05289,-0.04729 2.121474,-0.65501 4.83192,-1.35049 2.710446,-0.695479 6.576459,-1.693001 8.591139,-2.216715 2.01468,-0.523714 3.763481,-0.952208 3.886224,-0.952208 0.122743,0 1.75041,0.396195 3.617038,0.880434 1.866629,0.484238 5.726839,1.482395 8.57825,2.218126 2.8514,0.73573 5.14173,1.375362 5.08962,1.421403 -0.0521,0.04604 -0.90652,0.291971 -1.89867,0.546511 -0.99216,0.25454 -2.49971,0.643983 -3.35013,0.865429 -0.85042,0.221445 -2.32899,0.603529 -3.285709,0.849075 -0.95672,0.245545 -3.323981,0.853381 -5.260581,1.350746 l -3.521089,0.904299 -2.985897,-0.774795 c -4.586197,-1.190049 -6.169383,-1.577283 -6.224263,-1.522403 -0.06407,0.06407 8.820208,2.389671 9.165522,2.39922 0.141737,0.0039 1.678287,-0.361503 3.414558,-0.812051 z"
         id="path10" /><path
         style="fill:#d0d0d0"
         d="m 90.634121,23.379698 c 0,-0.07087 0.06141,-0.128851 0.136456,-0.128851 0.07505,0 0.10062,0.05798 0.05682,0.128851 -0.0438,0.07087 -0.105204,0.128851 -0.136455,0.128851 -0.03125,0 -0.05682,-0.05798 -0.05682,-0.128851 z m -1.224086,-0.128851 c -0.0438,-0.07087 -0.01823,-0.128851 0.05682,-0.128851 0.07505,0 0.136456,0.05798 0.136456,0.128851 0,0.07087 -0.02557,0.128851 -0.05682,0.128851 -0.03125,0 -0.09266,-0.05798 -0.136456,-0.128851 z m 1.739491,0 c 0,-0.07087 0.06141,-0.128851 0.136456,-0.128851 0.07505,0 0.10062,0.05798 0.05682,0.128851 -0.0438,0.07087 -0.105204,0.128851 -0.136455,0.128851 -0.03125,0 -0.05682,-0.05798 -0.05682,-0.128851 z m 0.45098,-0.128851 c 0.0438,-0.07087 0.137617,-0.128852 0.208485,-0.128852 0.07087,0 0.09302,0.05798 0.04922,0.128852 -0.0438,0.07087 -0.137617,0.128851 -0.208486,0.128851 -0.07087,0 -0.09301,-0.05798 -0.04922,-0.128851 z m 0.57983,-0.128852 c 0,-0.07087 0.06141,-0.128851 0.136456,-0.128851 0.07505,0 0.10062,0.05798 0.05682,0.128851 -0.0438,0.07087 -0.105204,0.128852 -0.136456,0.128852 -0.03125,0 -0.05682,-0.05798 -0.05682,-0.128852 z m 0.515405,-0.128851 c 0,-0.07087 0.06141,-0.128851 0.136455,-0.128851 0.07505,0 0.100621,0.05798 0.05682,0.128851 -0.0438,0.07087 -0.105204,0.128851 -0.136456,0.128851 -0.03125,0 -0.05682,-0.05798 -0.05682,-0.128851 z m -5.2829,-0.136455 c 0,-0.07505 0.05798,-0.100621 0.128851,-0.05682 0.07087,0.0438 0.128852,0.105204 0.128852,0.136456 0,0.03125 -0.05798,0.05682 -0.128852,0.05682 -0.07087,0 -0.128851,-0.06141 -0.128851,-0.136456 z M 86.446457,22.47774 c -0.0438,-0.07087 -0.01823,-0.128852 0.05682,-0.128852 0.07505,0 0.136456,0.05798 0.136456,0.128852 0,0.07087 -0.02557,0.128851 -0.05682,0.128851 -0.03125,0 -0.09266,-0.05798 -0.136456,-0.128851 z m 8.633031,-0.257703 c 0.0438,-0.07087 0.105204,-0.128851 0.136456,-0.128851 0.03125,0 0.05682,0.05798 0.05682,0.128851 0,0.07087 -0.06141,0.128851 -0.136456,0.128851 -0.07505,0 -0.10062,-0.05798 -0.05682,-0.128851 z M 82.55767,21.530918 c -0.296261,-0.08163 -0.576369,-0.186926 -0.622462,-0.233996 -0.122841,-0.125443 1.0103,0.165686 1.154675,0.296662 0.06732,0.06108 0.09632,0.105356 0.06443,0.0984 -0.03189,-0.007 -0.300378,-0.07944 -0.596639,-0.161064 z m 15.549822,-0.08399 c 0,-0.07087 0.06141,-0.128851 0.136455,-0.128851 0.07505,0 0.100621,0.05798 0.05682,0.128851 -0.0438,0.07087 -0.105204,0.128851 -0.136456,0.128851 -0.03125,0 -0.05682,-0.05798 -0.05682,-0.128851 z M 81.292409,21.189227 c -0.169922,-0.07302 -0.191867,-0.113151 -0.06443,-0.117821 0.106302,-0.0039 0.280251,0.04912 0.386554,0.117821 0.235535,0.152215 0.03209,0.152215 -0.322128,0 z m 17.717041,0.07821 c 0,-0.02785 0.08999,-0.08517 0.199969,-0.127376 0.114668,-0.044 0.166389,-0.0224 0.121247,0.05064 -0.07567,0.122435 -0.321216,0.181094 -0.321216,0.07674 z m 0.579831,-0.207063 c 0.0438,-0.07087 0.137617,-0.128851 0.208485,-0.128851 0.07087,0 0.09302,0.05798 0.04922,0.128851 -0.0438,0.07087 -0.137617,0.128851 -0.208486,0.128851 -0.07087,0 -0.09301,-0.05798 -0.04922,-0.128851 z M 80.526728,20.943542 c -0.03971,-0.06426 0.04384,-0.08649 0.185672,-0.0494 0.300866,0.07868 0.338898,0.166232 0.07221,0.166232 -0.10212,0 -0.218166,-0.05258 -0.25788,-0.116834 z m 19.513532,0.06619 c 0,-0.02785 0.09,-0.08517 0.19997,-0.127375 0.11467,-0.044 0.16639,-0.0224 0.12125,0.05064 -0.0757,0.122435 -0.32122,0.181094 -0.32122,0.07673 z M 80.003897,20.802674 c -0.0438,-0.07087 -0.01823,-0.128851 0.05682,-0.128851 0.07505,0 0.136455,0.05798 0.136455,0.128851 0,0.07087 -0.02557,0.128851 -0.05682,0.128851 -0.03125,0 -0.09266,-0.05798 -0.136455,-0.128851 z m -1.461312,-0.321577 c -0.591117,-0.16676 -1.112965,-0.345813 -1.159661,-0.397895 -0.0467,-0.05208 0.0021,-0.06539 0.108374,-0.02957 0.106302,0.03582 0.599158,0.170192 1.095235,0.298602 0.496077,0.128411 0.957043,0.282291 1.024367,0.341955 0.153543,0.136074 0.20764,0.146864 -1.068315,-0.213095 z m 23.043885,0.06387 c 0,-0.07087 0.0614,-0.128851 0.13646,-0.128851 0.075,0 0.10062,0.05798 0.0568,0.128851 -0.0438,0.07087 -0.1052,0.128852 -0.13645,0.128852 -0.0313,0 -0.0568,-0.05798 -0.0568,-0.128852 z m 0.38656,-0.04567 c 0,-0.04029 0.23556,-0.136674 0.52346,-0.214199 0.28791,-0.07752 0.61633,-0.176588 0.72982,-0.22014 0.12694,-0.04871 0.17398,-0.02679 0.12222,0.05695 -0.0463,0.07488 -0.29184,0.175106 -0.5457,0.222729 -0.25385,0.04762 -0.54441,0.118383 -0.64568,0.157244 -0.10126,0.03886 -0.18412,0.03769 -0.18412,-0.0026 z M 76.975893,20.021962 c 0,-0.07505 0.05798,-0.10062 0.128851,-0.05682 0.07087,0.0438 0.128851,0.105204 0.128851,0.136456 0,0.03125 -0.05798,0.05682 -0.128851,0.05682 -0.07087,0 -0.128851,-0.06141 -0.128851,-0.136456 z m 26.672197,0.0076 c 0,-0.07087 0.0614,-0.128852 0.13646,-0.128852 0.0751,0 0.10062,0.05798 0.0568,0.128852 -0.0438,0.07087 -0.1052,0.128851 -0.13645,0.128851 -0.0313,0 -0.0568,-0.05798 -0.0568,-0.128851 z M 76.396063,19.900715 c -0.0438,-0.07087 -0.02165,-0.128851 0.04922,-0.128851 0.07087,0 0.164687,0.05798 0.208486,0.128851 0.0438,0.07087 0.02165,0.128852 -0.04922,0.128852 -0.07087,0 -0.164686,-0.05798 -0.208486,-0.128852 z m 27.703007,0 c 0.0438,-0.07087 0.13762,-0.128851 0.20849,-0.128851 0.0709,0 0.093,0.05798 0.0492,0.128851 -0.0438,0.07087 -0.13762,0.128852 -0.20849,0.128852 -0.0709,0 -0.093,-0.05798 -0.0492,-0.128852 z M 75.945083,19.76426 c 0,-0.07505 0.05798,-0.10062 0.128852,-0.05682 0.07087,0.0438 0.128851,0.105204 0.128851,0.136456 0,0.03125 -0.05798,0.05682 -0.128851,0.05682 -0.07087,0 -0.128852,-0.06141 -0.128852,-0.136456 z m 28.669397,0.0076 c 0.0438,-0.07087 0.1052,-0.128851 0.13645,-0.128851 0.0313,0 0.0568,0.05798 0.0568,0.128851 0,0.07087 -0.0614,0.128851 -0.13645,0.128851 -0.0751,0 -0.10062,-0.05798 -0.0568,-0.128851 z m 0.5154,-0.128851 c 0.0438,-0.07087 0.10521,-0.128851 0.13646,-0.128851 0.0312,0 0.0568,0.05798 0.0568,0.128851 0,0.07087 -0.0614,0.128851 -0.13646,0.128851 -0.0751,0 -0.10062,-0.05798 -0.0568,-0.128851 z M 74.914274,19.506557 c 0,-0.07505 0.05798,-0.10062 0.128851,-0.05682 0.07087,0.0438 0.128851,0.105204 0.128851,0.136456 0,0.03125 -0.05798,0.05682 -0.128851,0.05682 -0.07087,0 -0.128851,-0.06141 -0.128851,-0.136456 z m 30.731016,0.0076 c 0.0438,-0.07087 0.1052,-0.128852 0.13645,-0.128852 0.0312,0 0.0568,0.05798 0.0568,0.128852 0,0.07087 -0.0614,0.128851 -0.13645,0.128851 -0.0751,0 -0.10062,-0.05798 -0.0568,-0.128851 z m 0.32213,-0.05064 c 0,-0.02785 0.09,-0.08517 0.19996,-0.127376 0.11467,-0.044 0.16639,-0.0224 0.12125,0.05064 -0.0757,0.122435 -0.32121,0.181094 -0.32121,0.07674 z M 73.94789,19.256459 c -0.0438,-0.07087 -0.01823,-0.128851 0.05682,-0.128851 0.07505,0 0.136455,0.05798 0.136455,0.128851 0,0.07087 -0.02557,0.128851 -0.05682,0.128851 -0.03125,0 -0.09266,-0.05798 -0.136455,-0.128851 z m 32.59936,0 c 0.0438,-0.07087 0.13761,-0.128851 0.20848,-0.128851 0.0709,0 0.093,0.05798 0.0492,0.128851 -0.0438,0.07087 -0.13762,0.128851 -0.20849,0.128851 -0.0709,0 -0.093,-0.05798 -0.0492,-0.128851 z M 73.432485,19.127608 c -0.0438,-0.07087 -0.01823,-0.128851 0.05682,-0.128851 0.07505,0 0.136456,0.05798 0.136456,0.128851 0,0.07087 -0.02557,0.128851 -0.05682,0.128851 -0.03125,0 -0.09266,-0.05798 -0.136456,-0.128851 z m 33.630165,0 c 0.0438,-0.07087 0.13762,-0.128851 0.20849,-0.128851 0.0709,0 0.093,0.05798 0.0492,0.128851 -0.0438,0.07087 -0.13761,0.128851 -0.20848,0.128851 -0.0709,0 -0.093,-0.05798 -0.0492,-0.128851 z M 72.723803,19.002702 c -0.3206,-0.08253 -0.320754,-0.08329 -0.03234,-0.160189 0.159383,-0.0425 0.324642,-0.02087 0.367243,0.04806 0.111044,0.179673 0.03126,0.206386 -0.334902,0.112127 z m 34.921267,-0.07148 c 0.0896,-0.108014 0.18952,-0.169855 0.22195,-0.137423 0.0894,0.08936 -0.0922,0.333814 -0.24792,0.333814 -0.0854,0 -0.0757,-0.07393 0.026,-0.196391 z"
         id="path9" /><path
         style="fill:#a6a6a6"
         d="m 90.215355,23.423214 c 0.08858,-0.03575 0.233543,-0.03575 0.322128,0 0.08859,0.03574 0.01611,0.06499 -0.161064,0.06499 -0.17717,0 -0.249649,-0.02925 -0.161064,-0.06499 z m -1.538161,-0.389238 c 0.09301,-0.03722 0.204148,-0.03264 0.246965,0.01017 0.04282,0.04282 -0.03329,0.07327 -0.169118,0.06768 -0.150104,-0.0062 -0.180636,-0.03672 -0.07785,-0.07785 z m -0.515405,-0.128852 c 0.09301,-0.03722 0.204149,-0.03264 0.246965,0.01017 0.04282,0.04282 -0.03329,0.07327 -0.169118,0.06768 -0.150104,-0.0062 -0.180636,-0.03672 -0.07785,-0.07785 z m -2.448173,-0.644256 c 0.09301,-0.03722 0.204148,-0.03264 0.246965,0.01017 0.04282,0.04282 -0.03329,0.07327 -0.169118,0.06768 -0.150104,-0.0062 -0.180636,-0.03672 -0.07785,-0.07785 z m -0.515405,-0.128851 c 0.09301,-0.03722 0.204149,-0.03264 0.246965,0.01017 0.04282,0.04282 -0.03329,0.07327 -0.169117,0.06768 -0.150105,-0.0062 -0.180637,-0.03672 -0.07785,-0.07785 z m 10.179246,0 c 0.09301,-0.03722 0.204148,-0.03264 0.246965,0.01017 0.04282,0.04282 -0.03329,0.07327 -0.169118,0.06768 -0.150104,-0.0062 -0.180636,-0.03672 -0.07785,-0.07785 z M 84.682806,22.003166 c 0.09301,-0.03722 0.204149,-0.03264 0.246965,0.01017 0.04282,0.04282 -0.03329,0.07327 -0.169117,0.06767 -0.150105,-0.0062 -0.180637,-0.03671 -0.07785,-0.07785 z m 11.210056,0 c 0.09301,-0.03722 0.204148,-0.03264 0.246964,0.01017 0.04282,0.04282 -0.03329,0.07327 -0.169117,0.06767 -0.150104,-0.0062 -0.180636,-0.03671 -0.07785,-0.07785 z m 1.030809,-0.257703 c 0.09302,-0.03722 0.204149,-0.03264 0.246965,0.01017 0.04282,0.04282 -0.03329,0.07327 -0.169117,0.06768 -0.150104,-0.0062 -0.180637,-0.03672 -0.07785,-0.07785 z m 0.515405,-0.128851 c 0.09301,-0.03722 0.204149,-0.03264 0.246965,0.01017 0.04282,0.04282 -0.03329,0.07327 -0.169117,0.06767 -0.150105,-0.0062 -0.180637,-0.03672 -0.07785,-0.07785 z m -22.806664,-2.19047 c 0.09301,-0.03722 0.204148,-0.03264 0.246964,0.01017 0.04282,0.04282 -0.03329,0.07327 -0.169117,0.06768 -0.150104,-0.0062 -0.180636,-0.03672 -0.07785,-0.07785 z m 33.216048,-0.634031 c -0.0453,-0.117985 -0.16176,-0.175003 -0.27149,-0.132895 -0.10571,0.04056 -0.19219,0.01083 -0.19219,-0.06609 0,-0.07691 -0.11597,-0.109509 -0.2577,-0.07244 -0.14174,0.03706 -0.25771,0.0086 -0.25771,-0.06318 0,-0.07182 -0.0851,-0.09791 -0.18915,-0.05799 -0.10403,0.03992 -0.22586,0.01318 -0.27073,-0.05942 -0.0449,-0.0726 -0.16084,-0.101596 -0.2577,-0.06443 -0.0969,0.03717 -0.21283,0.0082 -0.25771,-0.06442 -0.0449,-0.07261 -0.16269,-0.100884 -0.26183,-0.06284 -0.0991,0.03804 -0.18024,0.0068 -0.18024,-0.06943 0,-0.07623 -0.0851,-0.10593 -0.18915,-0.06601 -0.10403,0.03992 -0.22586,0.01318 -0.27074,-0.05943 -0.0449,-0.0726 -0.16083,-0.101596 -0.2577,-0.06442 -0.0969,0.03717 -0.21283,0.0082 -0.2577,-0.06443 -0.0449,-0.0726 -0.16084,-0.101596 -0.2577,-0.06442 -0.0969,0.03717 -0.21283,0.0082 -0.25771,-0.06443 -0.0449,-0.0726 -0.16083,-0.101596 -0.2577,-0.06443 -0.0969,0.03717 -0.21283,0.0082 -0.2577,-0.06442 -0.0449,-0.0726 -0.16084,-0.101596 -0.2577,-0.06443 -0.0969,0.03717 -0.21283,0.0082 -0.2577,-0.06442 -0.0449,-0.0726 -0.16084,-0.101596 -0.25771,-0.06443 -0.0969,0.03717 -0.21283,0.0082 -0.2577,-0.06443 -0.0449,-0.0726 -0.16269,-0.100883 -0.26183,-0.06284 -0.0991,0.03804 -0.18024,0.0094 -0.18024,-0.06374 0,-0.0731 -0.10147,-0.116214 -0.22549,-0.09581 -0.12402,0.0204 -0.29797,-0.0084 -0.38656,-0.06393 -0.0886,-0.05557 -0.16106,-0.06151 -0.16106,-0.01322 0,0.04829 -0.0862,0.01624 -0.19164,-0.07124 -0.10539,-0.08747 -0.27934,-0.125385 -0.38655,-0.08425 -0.1072,0.04114 -0.19492,0.01187 -0.19492,-0.06504 0,-0.07691 -0.11596,-0.109509 -0.2577,-0.07244 -0.14174,0.03706 -0.257701,0.0086 -0.257701,-0.06318 0,-0.07182 -0.08512,-0.09791 -0.189151,-0.05799 -0.104032,0.03992 -0.225863,0.01318 -0.270735,-0.05942 -0.04487,-0.0726 -0.160839,-0.101596 -0.257703,-0.06442 -0.09686,0.03717 -0.21283,0.0082 -0.257702,-0.06443 -0.04487,-0.0726 -0.160838,-0.101596 -0.257703,-0.06443 -0.09686,0.03717 -0.21283,0.0082 -0.257702,-0.06442 -0.04487,-0.0726 -0.160838,-0.101596 -0.257703,-0.06443 -0.09686,0.03717 -0.21283,0.0082 -0.257702,-0.06443 -0.04487,-0.0726 -0.160838,-0.101595 -0.257702,-0.06442 -0.09686,0.03717 -0.212831,0.0082 -0.257703,-0.06443 -0.04487,-0.0726 -0.160838,-0.101596 -0.257702,-0.06442 -0.09686,0.03717 -0.212831,0.0082 -0.257703,-0.06443 -0.04487,-0.0726 -0.160838,-0.101596 -0.257702,-0.06443 -0.09686,0.03717 -0.212831,0.0082 -0.257703,-0.06442 -0.04487,-0.0726 -0.162695,-0.100884 -0.261828,-0.06284 -0.09913,0.03804 -0.180244,0.0062 -0.180244,-0.07067 0,-0.07691 -0.115908,-0.109524 -0.257574,-0.07248 -0.141666,0.03705 -0.29063,0.01387 -0.331031,-0.0515 -0.0404,-0.06537 -0.123428,-0.08797 -0.184502,-0.05023 -0.06107,0.03775 -0.149908,0.0057 -0.197407,-0.07111 -0.0475,-0.07686 -0.167472,-0.108612 -0.266606,-0.07057 -0.09913,0.03804 -0.180243,0.0062 -0.180243,-0.07067 0,-0.07691 -0.115909,-0.109525 -0.257574,-0.07248 -0.141666,0.03705 -0.292489,0.01086 -0.335162,-0.05818 -0.04267,-0.06905 -0.15684,-0.09513 -0.253704,-0.05796 -0.09686,0.03717 -0.21283,0.0082 -0.257702,-0.06442 -0.04487,-0.0726 -0.162695,-0.100884 -0.261829,-0.06284 -0.09913,0.03804 -0.180244,0.0062 -0.180244,-0.07067 0,-0.07691 -0.115966,-0.10951 -0.257702,-0.07245 -0.141736,0.03707 -0.257703,0.0086 -0.257703,-0.06318 0,-0.07181 -0.08512,-0.09791 -0.18915,-0.05799 -0.104033,0.03992 -0.225864,0.01318 -0.270736,-0.05942 -0.04487,-0.0726 -0.160838,-0.101596 -0.257702,-0.06443 -0.09686,0.03717 -0.212831,0.0082 -0.257703,-0.06442 -0.04487,-0.0726 -0.160838,-0.101596 -0.257702,-0.06443 -0.09686,0.03717 -0.208822,0.01466 -0.248795,-0.05001 -0.03997,-0.06468 -0.157797,-0.08493 -0.261829,-0.04501 -0.152605,0.05856 -0.189151,-0.06868 -0.189151,-0.658567 0,-0.636186 0.02929,-0.72237 0.22549,-0.663548 0.225751,0.06768 3.997976,1.04713 12.76188,3.313593 l 4.67647,1.209396 -0.0268,0.741391 c -0.0264,0.731868 -0.13937,0.937411 -0.29389,0.534745 z m -35.165671,-0.0062 c -0.04831,-0.04831 -0.08784,-0.361329 -0.08784,-0.695597 0,-0.525763 0.03911,-0.616231 0.289915,-0.670551 0.25534,-0.0553 2.871667,-0.727661 7.892137,-2.028162 1.339714,-0.34704 4.861197,-1.254809 8.053201,-2.075957 0.531511,-0.136732 1.067854,-0.280484 1.191873,-0.319447 0.196129,-0.06162 0.22549,0.02204 0.22549,0.642478 0,0.5582 -0.0392,0.698279 -0.180244,0.644154 -0.09913,-0.03804 -0.216956,-0.0098 -0.261828,0.06284 -0.04487,0.0726 -0.166704,0.09935 -0.270736,0.05942 -0.104033,-0.03992 -0.189151,-0.01383 -0.189151,0.05799 0,0.07182 -0.115966,0.100248 -0.257702,0.06318 -0.141736,-0.03707 -0.257702,-0.0081 -0.257702,0.06443 0,0.0725 -0.115967,0.10149 -0.257703,0.06442 -0.141736,-0.03707 -0.257702,-0.0081 -0.257702,0.06443 0,0.0725 -0.115966,0.10149 -0.257703,0.06442 -0.150546,-0.03937 -0.257702,-0.004 -0.257702,0.08517 0,0.09393 -0.09905,0.121126 -0.257703,0.07077 -0.153589,-0.04875 -0.257702,-0.02316 -0.257702,0.06335 0,0.07983 -0.04893,0.114899 -0.108731,0.07794 -0.101737,-0.06288 -0.87486,0.09818 -1.308632,0.272614 -0.106303,0.04275 -0.261384,0.06704 -0.344625,0.05398 -0.08324,-0.01306 -0.186568,0.03325 -0.229616,0.102902 -0.04305,0.06965 -0.163386,0.09398 -0.267419,0.05406 -0.104032,-0.03992 -0.18915,-0.01383 -0.18915,0.05799 0,0.07182 -0.115966,0.100248 -0.257702,0.06318 -0.141737,-0.03707 -0.257703,-0.0045 -0.257703,0.07244 0,0.07691 -0.07698,0.110298 -0.171056,0.07419 -0.09408,-0.0361 -0.34051,0.004 -0.547618,0.08913 -0.207109,0.08513 -0.444668,0.143937 -0.527909,0.130693 -0.08324,-0.01325 -0.186568,0.03291 -0.229616,0.10256 -0.04305,0.06965 -0.157521,0.09623 -0.254385,0.05906 -0.09686,-0.03717 -0.212831,-0.0082 -0.257703,0.06443 -0.04487,0.0726 -0.160838,0.101596 -0.257702,0.06442 -0.09686,-0.03717 -0.21498,-0.0047 -0.26248,0.07216 -0.0475,0.07686 -0.135473,0.109385 -0.195497,0.07229 -0.06002,-0.0371 -0.273454,1.2e-5 -0.474289,0.08246 -0.200834,0.08245 -0.466624,0.137205 -0.590643,0.121673 -0.124019,-0.01553 -0.225489,0.02796 -0.225489,0.09665 0,0.06869 -0.115967,0.09456 -0.257703,0.0575 -0.141736,-0.03707 -0.257702,-0.0045 -0.257702,0.07244 0,0.07691 -0.08111,0.108711 -0.180244,0.07067 -0.09913,-0.03804 -0.216957,-0.0098 -0.261829,0.06284 -0.04487,0.0726 -0.160838,0.101596 -0.257702,0.06443 -0.09686,-0.03717 -0.21283,-0.0082 -0.257702,0.06442 -0.04487,0.0726 -0.160839,0.101596 -0.257703,0.06443 -0.09686,-0.03717 -0.21283,-0.0082 -0.257702,0.06442 -0.04487,0.0726 -0.166703,0.09935 -0.270736,0.05943 -0.104033,-0.03992 -0.18915,-0.01383 -0.18915,0.05799 0,0.07181 -0.115967,0.100248 -0.257703,0.06318 -0.141736,-0.03706 -0.257702,-0.0081 -0.257702,0.06442 0,0.0725 -0.115966,0.101491 -0.257703,0.06443 -0.141736,-0.03707 -0.257702,-0.0081 -0.257702,0.06443 0,0.0725 -0.115966,0.10149 -0.257703,0.06443 -0.141736,-0.03707 -0.257702,-0.0045 -0.257702,0.07244 0,0.07691 -0.08111,0.108711 -0.180243,0.07067 -0.09913,-0.03804 -0.216957,-0.0098 -0.261829,0.06284 -0.04487,0.07261 -0.160838,0.101596 -0.257703,0.06443 -0.09686,-0.03717 -0.21283,-0.0082 -0.257702,0.06443 -0.04487,0.0726 -0.160838,0.101596 -0.257703,0.06442 -0.09686,-0.03717 -0.21283,-0.0082 -0.257702,0.06443 -0.04487,0.0726 -0.160838,0.101596 -0.257702,0.06442 -0.09686,-0.03717 -0.21498,-0.0047 -0.26248,0.07215 -0.0475,0.07686 -0.140339,0.106378 -0.20631,0.06561 -0.06597,-0.04077 -0.189804,-0.03096 -0.275184,0.02181 -0.08538,0.05277 -0.328866,0.11495 -0.54108,0.138182 -0.212214,0.02323 -0.421738,0.100318 -0.465608,0.171302 -0.04387,0.07098 -0.119291,0.08953 -0.167602,0.04122 z"
         id="path8" /><path
         style="fill:#909090"
         d="m 72.481048,18.129011 c 0.01586,-0.786394 0.07276,-0.709333 0.142705,0.193277 0.02334,0.30119 -0.0026,0.547618 -0.05761,0.547618 -0.05502,0 -0.09332,-0.333403 -0.0851,-0.740895 z m 35.648042,0.193277 c 0.0699,-0.90261 0.12684,-0.979671 0.1427,-0.193277 0.008,0.407492 -0.0301,0.740895 -0.0851,0.740895 -0.055,0 -0.0809,-0.246428 -0.0576,-0.547618 z m -35.171744,0.330746 c 0.09301,-0.03722 0.204149,-0.03264 0.246965,0.01017 0.04282,0.04282 -0.03329,0.07327 -0.169117,0.06768 -0.150105,-0.0062 -0.180637,-0.03672 -0.07785,-0.07785 z m 34.145574,-0.128851 c 0.093,-0.03722 0.20415,-0.03264 0.24696,0.01017 0.0428,0.04282 -0.0333,0.07327 -0.16912,0.06768 -0.1501,-0.0062 -0.18063,-0.03672 -0.0778,-0.07785 z M 76.436329,17.751076 c 0.09301,-0.03722 0.204148,-0.03264 0.246964,0.01017 0.04282,0.04282 -0.03329,0.07327 -0.169117,0.06768 -0.150104,-0.0062 -0.180636,-0.03671 -0.07785,-0.07785 z m 0.515404,-0.128851 c 0.09301,-0.03722 0.204149,-0.03264 0.246965,0.01017 0.04282,0.04282 -0.03329,0.07327 -0.169117,0.06767 -0.150104,-0.0062 -0.180636,-0.03671 -0.07785,-0.07785 z m 0.515405,-0.128852 c 0.09301,-0.03722 0.204149,-0.03264 0.246965,0.01017 0.04282,0.04282 -0.03329,0.07327 -0.169117,0.06768 -0.150104,-0.0062 -0.180637,-0.03672 -0.07785,-0.07785 z M 101.69117,17.10682 c 0.093,-0.03722 0.20414,-0.03264 0.24696,0.01017 0.0428,0.04282 -0.0333,0.07327 -0.16912,0.06768 -0.1501,-0.0062 -0.18063,-0.03672 -0.0778,-0.07785 z M 79.915311,16.849117 c 0.09301,-0.03722 0.204149,-0.03264 0.246965,0.01017 0.04282,0.04282 -0.03329,0.07327 -0.169117,0.06767 -0.150104,-0.0062 -0.180636,-0.03671 -0.07785,-0.07785 z m 20.745049,0 c 0.093,-0.03722 0.20415,-0.03264 0.24696,0.01017 0.0428,0.04282 -0.0333,0.07327 -0.16912,0.06767 -0.1501,-0.0062 -0.18063,-0.03671 -0.0778,-0.07785 z M 80.430716,16.720266 c 0.09301,-0.03722 0.204149,-0.03264 0.246965,0.01017 0.04282,0.04282 -0.03329,0.07327 -0.169117,0.06768 -0.150105,-0.0062 -0.180637,-0.03672 -0.07785,-0.07785 z m 19.714234,0 c 0.093,-0.03722 0.20415,-0.03264 0.24697,0.01017 0.0428,0.04282 -0.0333,0.07327 -0.16912,0.06768 -0.15011,-0.0062 -0.18064,-0.03672 -0.0779,-0.07785 z M 77.853692,16.07601 c 0.09301,-0.03722 0.204149,-0.03264 0.246965,0.01017 0.04282,0.04282 -0.03329,0.07327 -0.169117,0.06768 -0.150105,-0.0062 -0.180637,-0.03672 -0.07785,-0.07785 z m 5.758038,-0.169682 c 0.141737,-0.06091 0.344677,-0.110739 0.45098,-0.110739 0.121826,0 0.09801,0.04094 -0.06443,0.110739 -0.141736,0.06091 -0.344677,0.110738 -0.450979,0.110738 -0.121826,0 -0.09801,-0.04094 0.06442,-0.110738 z m 0.813374,-0.216872 c 0.09301,-0.03722 0.204148,-0.03264 0.246965,0.01017 0.04282,0.04282 -0.03329,0.07327 -0.169118,0.06767 -0.150104,-0.0062 -0.180636,-0.03671 -0.07785,-0.07785 z m 11.210055,-0.128851 c 0.09301,-0.03722 0.204149,-0.03264 0.246965,0.01017 0.04282,0.04282 -0.03329,0.07327 -0.169117,0.06767 -0.150105,-0.0062 -0.180637,-0.03672 -0.07785,-0.07785 z m -9.663841,-0.257702 c 0.09302,-0.03722 0.204149,-0.03264 0.246965,0.01017 0.04282,0.04282 -0.03329,0.07327 -0.169117,0.06768 -0.150104,-0.0062 -0.180637,-0.03671 -0.07785,-0.07785 z m 0.515405,-0.128851 c 0.09302,-0.03722 0.204149,-0.03264 0.246965,0.01017 0.04282,0.04282 -0.03329,0.07327 -0.169117,0.06767 -0.150105,-0.0062 -0.180637,-0.03671 -0.07785,-0.07785 z m 7.731073,0 c 0.09301,-0.03722 0.204148,-0.03264 0.246965,0.01017 0.04282,0.04282 -0.03329,0.07327 -0.169118,0.06767 -0.150104,-0.0062 -0.180636,-0.03671 -0.07785,-0.07785 z m -6.31371,-0.386554 c 0.09301,-0.03722 0.204149,-0.03264 0.246965,0.01017 0.04282,0.04282 -0.03329,0.07327 -0.169117,0.06768 -0.150104,-0.0062 -0.180636,-0.03672 -0.07785,-0.07785 z m 4.767495,0 c 0.09301,-0.03722 0.204149,-0.03264 0.246965,0.01017 0.04282,0.04282 -0.03329,0.07327 -0.169117,0.06768 -0.150104,-0.0062 -0.180637,-0.03672 -0.07785,-0.07785 z m -4.25209,-0.128851 c 0.09302,-0.03722 0.204149,-0.03264 0.246965,0.01017 0.04282,0.04282 -0.03329,0.07327 -0.169117,0.06768 -0.150104,-0.0062 -0.180637,-0.03672 -0.07785,-0.07785 z m 0.515405,-0.128851 c 0.09302,-0.03722 0.204149,-0.03264 0.246965,0.01017 0.04282,0.04282 -0.03329,0.07327 -0.169117,0.06767 -0.150105,-0.0062 -0.180637,-0.03671 -0.07785,-0.07785 z m 1.312672,-1.01482 c 0,-0.444713 0.04885,-0.686093 0.128851,-0.636652 0.07087,0.0438 0.128851,0.366128 0.128851,0.716286 0,0.350159 -0.05798,0.636652 -0.128851,0.636652 -0.07087,0 -0.128851,-0.322329 -0.128851,-0.716286 z m -3.374291,0.241712 c 0.09301,-0.03722 0.204148,-0.03264 0.246965,0.01017 0.04282,0.04282 -0.03329,0.07327 -0.169118,0.06767 -0.150104,-0.0062 -0.180636,-0.03671 -0.07785,-0.07785 z m 1.417363,-0.386553 c 0.09302,-0.03722 0.204149,-0.03264 0.246965,0.01017 0.04282,0.04282 -0.03329,0.07327 -0.169117,0.06767 -0.150105,-0.0062 -0.180637,-0.03671 -0.07785,-0.07785 z m 0.515405,-0.128852 c 0.09301,-0.03722 0.204149,-0.03264 0.246965,0.01017 0.04282,0.04282 -0.03329,0.07327 -0.169117,0.06768 -0.150105,-0.0062 -0.180637,-0.03672 -0.07785,-0.07785 z"
         id="path7" /><path
         style="fill:#717171"
         d="m 72.466101,7.3612473 v -10.091295 l 2.287109,-0.5991399 c 4.946063,-1.2956898 15.365295,-3.9577027 15.490617,-3.9577027 0.08975,0 0.132592,3.2436171 0.132592,10.0396569 0,7.9156844 0.03407,10.0516124 0.161064,10.0961704 0.08859,0.03108 0.01611,0.05804 -0.161064,0.0599 -0.17717,0.0019 -2.003636,0.442021 -4.058813,0.978134 -4.245447,1.107465 -6.999835,1.820399 -9.792692,2.534697 -1.063023,0.271877 -2.381071,0.615047 -2.928997,0.762599 -0.547925,0.147553 -1.026285,0.268277 -1.063022,0.268277 -0.03674,0 -0.06679,-4.541082 -0.06679,-10.0912947 z m 35.753149,-0.023525 c 1e-5,-5.5985852 0.0159,-7.8701067 0.0352,-5.0478257 0.0194,2.8222811 0.0194,7.4029417 -2e-5,10.1792454 -0.0194,2.776304 -0.0352,0.467165 -0.0352,-5.1314197 z"
         id="path6" /><path
         style="fill:#535353"
         d="m 105.70971,16.794511 c -1.31106,-0.347928 -4.21021,-1.09944 -6.442557,-1.670027 -2.232348,-0.570587 -4.899568,-1.261679 -5.927156,-1.53576 -1.027588,-0.274082 -2.114771,-0.562776 -2.41596,-0.641544 L 90.376419,12.803966 V 2.7585377 c 0,-5.958202 0.04777,-10.045428 0.117406,-10.045428 0.06457,0 2.253433,0.5530925 4.864133,1.2290944 4.368043,1.1310396 11.165202,2.880044 12.316732,3.1692698 l 0.4832,0.1213611 V 7.3426886 c 0,5.5604194 -0.0145,10.1041314 -0.0322,10.0971364 -0.0177,-0.007 -1.1049,-0.297385 -2.41596,-0.645314 z"
         id="path5" /></g></g></svg>
